<svg width="487.619" height="510.941" xmlns="http://www.w3.org/2000/svg">

 <g>
  <title>Layer 1</title>
  <path fill="#ffffff" id="svg_1" fill-rule="evenodd" d="m84.085,89.118c15.81,12.845 21.741,11.865 51.43,9.884l279.888,-16.806c5.936,0 1,-5.922 -0.98,-6.906l-46.483,-33.604c-8.907,-6.915 -20.773,-14.834 -43.516,-12.853l-271.016,19.767c-9.884,0.98 -11.858,5.922 -7.922,9.883l38.599,30.635zm16.804,65.228l0,294.491c0,15.827 7.909,21.748 25.71,20.769l307.597,-17.799c17.81,-0.979 19.794,-11.865 19.794,-24.722l0,-292.515c0,-12.836 -4.938,-19.758 -15.84,-18.77l-321.442,18.77c-11.863,0.997 -15.82,6.931 -15.82,19.776l0.001,0zm303.659,15.797c1.972,8.903 0,17.798 -8.92,18.799l-14.82,2.953l0,217.412c-12.868,6.916 -24.734,10.87 -34.622,10.87c-15.831,0 -19.796,-4.945 -31.654,-19.76l-96.944,-152.19l0,147.248l30.677,6.922s0,17.78 -24.75,17.78l-68.23,3.958c-1.982,-3.958 0,-13.832 6.921,-15.81l17.805,-4.935l0,-194.69l-24.721,-1.981c-1.983,-8.903 2.955,-21.74 16.812,-22.736l73.195,-4.934l100.889,154.171l0,-136.384l-25.723,-2.952c-1.974,-10.884 5.927,-18.787 15.819,-19.767l68.266,-3.974zm-373.895,-148.224l281.9,-20.76c34.618,-2.969 43.525,-0.98 65.283,14.825l89.986,63.247c14.848,10.876 19.797,13.837 19.797,25.693l0,346.883c0,21.74 -7.92,34.597 -35.608,36.564l-327.371,19.769c-20.785,0.991 -30.677,-1.971 -41.562,-15.815l-66.267,-85.978c-11.873,-15.827 -16.811,-27.667 -16.811,-41.519l0,-308.333c0,-17.778 7.922,-32.608 30.653,-34.576z"/>
 </g>
</svg>